<svg width="800" height="1200" viewBox="0 0 800 1200" xmlns="http://www.w3.org/2000/svg">
  <defs>
    <linearGradient id="redBg1" x1="0%" y1="0%" x2="100%" y2="100%">
      <stop offset="0%" style="stop-color:#ff6b6b;stop-opacity:1" />
      <stop offset="50%" style="stop-color:#ee5a52;stop-opacity:1" />
      <stop offset="100%" style="stop-color:#c92a2a;stop-opacity:1" />
    </linearGradient>
    <filter id="glow">
      <feGaussianBlur stdDeviation="3" result="coloredBlur"/>
      <feMerge>
        <feMergeNode in="coloredBlur"/>
        <feMergeNode in="SourceGraphic"/>
      </feMerge>
    </filter>
  </defs>

  <!-- 背景 -->
  <rect width="800" height="1200" fill="url(#redBg1)"/>

  <!-- 装饰：破碎的几何形状 -->
  <polygon points="100,150 200,100 250,200 150,250" fill="rgba(255,255,255,0.1)" transform="rotate(15 175 175)"/>
  <polygon points="600,200 700,150 750,250 650,300" fill="rgba(255,255,255,0.08)" transform="rotate(-20 675 225)"/>
  <polygon points="50,700 150,650 200,750 100,800" fill="rgba(255,255,255,0.12)" transform="rotate(25 125 725)"/>

  <!-- 细线装饰 -->
  <line x1="0" y1="300" x2="200" y2="250" stroke="rgba(255,255,255,0.3)" stroke-width="1"/>
  <line x1="600" y1="400" x2="800" y2="350" stroke="rgba(255,255,255,0.3)" stroke-width="1"/>
  <line x1="0" y1="600" x2="150" y2="650" stroke="rgba(255,255,255,0.3)" stroke-width="1"/>

  <!-- 主文案 -->
  <text x="400" y="280" font-family="PingFang SC, Helvetica, sans-serif"
        font-size="48" font-weight="200" fill="white" text-anchor="middle" filter="url(#glow)">
    逛B站时
  </text>

  <text x="400" y="360" font-family="PingFang SC, Helvetica, sans-serif"
        font-size="64" font-weight="200" fill="white" text-anchor="middle" filter="url(#glow)">
    又被
  </text>

  <text x="400" y="460" font-family="PingFang SC, Helvetica, sans-serif"
        font-size="96" font-weight="bold" fill="white" text-anchor="middle" filter="url(#glow)">
    切片广告
  </text>

  <text x="400" y="560" font-family="PingFang SC, Helvetica, sans-serif"
        font-size="64" font-weight="200" fill="white" text-anchor="middle" filter="url(#glow)">
    打断了
  </text>

  <text x="400" y="680" font-family="PingFang SC, Helvetica, sans-serif"
        font-size="120" font-weight="100" fill="rgba(255,255,255,0.9)" text-anchor="middle">
    ?
  </text>

  <!-- 真实二维码区域 -->
  <g id="qrcode-container" transform="translate(570, 790)">
    <!-- 二维码背景 -->
    <rect x="0" y="0" width="120" height="120" rx="15"
          fill="rgba(255,255,255,0.98)"
          stroke="rgba(255,255,255,0.5)"
          stroke-width="2"
          filter="url(#glow)"/>

    <!-- 真实二维码 - 调整尺寸和颜色 -->
    <g transform="translate(10, 10) scale(10.75)">
      <path d="M0.3,0.3H0.6V0.6H0.3zM0.6,0.3H0.9V0.6H0.6zM0.9,0.3H1.2V0.6H0.9zM1.2,0.3H1.5V0.6H1.2zM1.5,0.3H1.8V0.6H1.5zM1.8,0.3H2.1V0.6H1.8zM2.1,0.3H2.4V0.6H2.1zM2.7,0.3H3V0.6H2.7zM3,0.3H3.3V0.6H3zM3.6,0.3H3.9V0.6H3.6zM3.9,0.3H4.2V0.6H3.9zM4.2,0.3H4.5V0.6H4.2zM4.5,0.3H4.8V0.6H4.5zM4.8,0.3H5.1V0.6H4.8zM5.1,0.3H5.4V0.6H5.1zM5.4,0.3H5.7V0.6H5.4zM5.7,0.3H6V0.6H5.7zM6.9,0.3H7.2V0.6H6.9zM7.2,0.3H7.5V0.6H7.2zM7.5,0.3H7.8V0.6H7.5zM7.8,0.3H8.1V0.6H7.8zM8.1,0.3H8.4V0.6H8.1zM8.4,0.3H8.7V0.6H8.4zM8.7,0.3H9V0.6H8.7zM0.3,0.6H0.6V0.9H0.3zM2.1,0.6H2.4V0.9H2.1zM3.9,0.6H4.2V0.9H3.9zM4.5,0.6H4.8V0.9H4.5zM5.1,0.6H5.4V0.9H5.1zM5.7,0.6H6V0.9H5.7zM6,0.6H6.3V0.9H6zM6.9,0.6H7.2V0.9H6.9zM8.7,0.6H9V0.9H8.7zM0.3,0.9H0.6V1.2H0.3zM0.9,0.9H1.2V1.2H0.9zM1.2,0.9H1.5V1.2H1.2zM1.5,0.9H1.8V1.2H1.5zM2.1,0.9H2.4V1.2H2.1zM3.3,0.9H3.6V1.2H3.3zM4.5,0.9H4.8V1.2H4.5zM4.8,0.9H5.1V1.2H4.8zM5.4,0.9H5.7V1.2H5.4zM5.7,0.9H6V1.2H5.7zM6,0.9H6.3V1.2H6zM6.3,0.9H6.6V1.2H6.3zM6.9,0.9H7.2V1.2H6.9zM7.5,0.9H7.8V1.2H7.5zM7.8,0.9H8.1V1.2H7.8zM8.1,0.9H8.4V1.2H8.1zM8.7,0.9H9V1.2H8.7zM0.3,1.2H0.6V1.5H0.3zM0.9,1.2H1.2V1.5H0.9zM1.2,1.2H1.5V1.5H1.2zM1.5,1.2H1.8V1.5H1.5zM2.1,1.2H2.4V1.5H2.1zM2.7,1.2H3V1.5H2.7zM3.3,1.2H3.6V1.5H3.3zM3.6,1.2H3.9V1.5H3.6zM3.9,1.2H4.2V1.5H3.9zM4.2,1.2H4.5V1.5H4.2zM4.5,1.2H4.8V1.5H4.5zM4.8,1.2H5.1V1.5H4.8zM5.1,1.2H5.4V1.5H5.1zM5.7,1.2H6V1.5H5.7zM6.9,1.2H7.2V1.5H6.9zM7.5,1.2H7.8V1.5H7.5zM7.8,1.2H8.1V1.5H7.8zM8.1,1.2H8.4V1.5H8.1zM8.7,1.2H9V1.5H8.7zM0.3,1.5H0.6V1.8H0.3zM0.9,1.5H1.2V1.8H0.9zM1.2,1.5H1.5V1.8H1.2zM1.5,1.5H1.8V1.8H1.5zM2.1,1.5H2.4V1.8H2.1zM2.7,1.5H3V1.8H2.7zM3,1.5H3.3V1.8H3zM3.9,1.5H4.2V1.8H3.9zM4.2,1.5H4.5V1.8H4.2zM4.8,1.5H5.1V1.8H4.8zM5.1,1.5H5.4V1.8H5.1zM6.9,1.5H7.2V1.8H6.9zM7.5,1.5H7.8V1.8H7.5zM7.8,1.5H8.1V1.8H7.8zM8.1,1.5H8.4V1.8H8.1zM8.7,1.5H9V1.8H8.7zM0.3,1.8H0.6V2.1H0.3zM2.1,1.8H2.4V2.1H2.1zM2.7,1.8H3V2.1H2.7zM3.3,1.8H3.6V2.1H3.3zM3.6,1.8H3.9V2.1H3.6zM4.2,1.8H4.5V2.1H4.2zM6,1.8H6.3V2.1H6zM6.3,1.8H6.6V2.1H6.3zM6.9,1.8H7.2V2.1H6.9zM8.7,1.8H9V2.1H8.7zM0.3,2.1H0.6V2.4H0.3zM0.6,2.1H0.9V2.4H0.6zM0.9,2.1H1.2V2.4H0.9zM1.2,2.1H1.5V2.4H1.2zM1.5,2.1H1.8V2.4H1.5zM1.8,2.1H2.1V2.4H1.8zM2.1,2.1H2.4V2.4H2.1zM2.7,2.1H3V2.4H2.7zM3.3,2.1H3.6V2.4H3.3zM3.9,2.1H4.2V2.4H3.9zM4.5,2.1H4.8V2.4H4.5zM5.1,2.1H5.4V2.4H5.1zM5.7,2.1H6V2.4H5.7zM6.3,2.1H6.6V2.4H6.3zM6.9,2.1H7.2V2.4H6.9zM7.2,2.1H7.5V2.4H7.2zM7.5,2.1H7.8V2.4H7.5zM7.8,2.1H8.1V2.4H7.8zM8.1,2.1H8.4V2.4H8.1zM8.4,2.1H8.7V2.4H8.4zM8.7,2.1H9V2.4H8.7zM2.7,2.4H3V2.7H2.7zM3.6,2.4H3.9V2.7H3.6zM5.1,2.4H5.4V2.7H5.1zM5.4,2.4H5.7V2.7H5.4zM6,2.4H6.3V2.7H6zM6.3,2.4H6.6V2.7H6.3zM0.3,2.7H0.6V3H0.3zM1.5,2.7H1.8V3H1.5zM2.1,2.7H2.4V3H2.1zM2.4,2.7H2.7V3H2.4zM2.7,2.7H3V3H2.7zM3.9,2.7H4.2V3H3.9zM4.8,2.7H5.1V3H4.8zM5.4,2.7H5.7V3H5.4zM6.3,2.7H6.6V3H6.3zM6.6,2.7H6.9V3H6.6zM6.9,2.7H7.2V3H6.9zM7.2,2.7H7.5V3H7.2zM7.5,2.7H7.8V3H7.5zM7.8,2.7H8.1V3H7.8zM8.7,2.7H9V3H8.7zM0.6,3H0.9V3.3H0.6zM0.9,3H1.2V3.3H0.9zM1.2,3H1.5V3.3H1.2zM1.5,3H1.8V3.3H1.5zM2.4,3H2.7V3.3H2.4zM2.7,3H3V3.3H2.7zM3.6,3H3.9V3.3H3.6zM3.9,3H4.2V3.3H3.9zM4.2,3H4.5V3.3H4.2zM4.8,3H5.1V3.3H4.8zM5.1,3H5.4V3.3H5.1zM5.4,3H5.7V3.3H5.4zM5.7,3H6V3.3H5.7zM6.3,3H6.6V3.3H6.3zM6.9,3H7.2V3.3H6.9zM7.2,3H7.5V3.3H7.2zM7.5,3H7.8V3.3H7.5zM7.8,3H8.1V3.3H7.8zM8.1,3H8.4V3.3H8.1zM8.4,3H8.7V3.3H8.4zM8.7,3H9V3.3H8.7zM0.3,3.3H0.6V3.6H0.3zM1.2,3.3H1.5V3.6H1.2zM1.5,3.3H1.8V3.6H1.5zM1.8,3.3H2.1V3.6H1.8zM2.1,3.3H2.4V3.6H2.1zM3.3,3.3H3.6V3.6H3.3zM3.6,3.3H3.9V3.6H3.6zM3.9,3.3H4.2V3.6H3.9zM4.2,3.3H4.5V3.6H4.2zM4.8,3.3H5.1V3.6H4.8zM5.4,3.3H5.7V3.6H5.4zM6.3,3.3H6.6V3.6H6.3zM7.5,3.3H7.8V3.6H7.5zM8.7,3.3H9V3.6H8.7zM0.3,3.6H0.6V3.9H0.3zM0.6,3.6H0.9V3.9H0.6zM0.9,3.6H1.2V3.9H0.9zM1.5,3.6H1.8V3.9H1.5zM1.8,3.6H2.1V3.9H1.8zM2.4,3.6H2.7V3.9H2.4zM2.7,3.6H3V3.9H2.7zM3.3,3.6H3.6V3.9H3.3zM3.9,3.6H4.2V3.9H3.9zM4.5,3.6H4.8V3.9H4.5zM5.4,3.6H5.7V3.9H5.4zM7.2,3.6H7.5V3.9H7.2zM7.5,3.6H7.8V3.9H7.5zM7.8,3.6H8.1V3.9H7.8zM8.4,3.6H8.7V3.9H8.4zM8.7,3.6H9V3.9H8.7zM0.6,3.9H0.9V4.2H0.6zM1.2,3.9H1.5V4.2H1.2zM2.1,3.9H2.4V4.2H2.1zM2.4,3.9H2.7V4.2H2.4zM2.7,3.9H3V4.2H2.7zM3,3.9H3.3V4.2H3zM3.9,3.9H4.2V4.2H3.9zM4.2,3.9H4.5V4.2H4.2zM4.5,3.9H4.8V4.2H4.5zM4.8,3.9H5.1V4.2H4.8zM5.4,3.9H5.7V4.2H5.4zM6.3,3.9H6.6V4.2H6.3zM6.6,3.9H6.9V4.2H6.6zM8.4,3.9H8.7V4.2H8.4zM0.9,4.2H1.2V4.5H0.9zM1.2,4.2H1.5V4.5H1.2zM1.8,4.2H2.1V4.5H1.8zM2.7,4.2H3V4.5H2.7zM3,4.2H3.3V4.5H3zM3.3,4.2H3.6V4.5H3.3zM3.9,4.2H4.2V4.5H3.9zM4.5,4.2H4.8V4.5H4.5zM4.8,4.2H5.1V4.5H4.8zM5.1,4.2H5.4V4.5H5.1zM6.9,4.2H7.2V4.5H6.9zM7.2,4.2H7.5V4.5H7.2zM7.5,4.2H7.8V4.5H7.5zM7.8,4.2H8.1V4.5H7.8zM8.1,4.2H8.4V4.5H8.1zM8.4,4.2H8.7V4.5H8.4zM8.7,4.2H9V4.5H8.7zM0.6,4.5H0.9V4.8H0.6zM1.5,4.5H1.8V4.8H1.5zM2.1,4.5H2.4V4.8H2.1zM2.7,4.5H3V4.8H2.7zM3,4.5H3.3V4.8H3zM3.6,4.5H3.9V4.8H3.6zM3.9,4.5H4.2V4.8H3.9zM4.2,4.5H4.5V4.8H4.2zM4.5,4.5H4.8V4.8H4.5zM4.8,4.5H5.1V4.8H4.8zM5.1,4.5H5.4V4.8H5.1zM5.4,4.5H5.7V4.8H5.4zM5.7,4.5H6V4.8H5.7zM6.3,4.5H6.6V4.8H6.3zM7.5,4.5H7.8V4.8H7.5zM7.8,4.5H8.1V4.8H7.8zM8.1,4.5H8.4V4.8H8.1zM8.7,4.5H9V4.8H8.7zM0.6,4.8H0.9V5.1H0.6zM1.5,4.8H1.8V5.1H1.5zM1.8,4.8H2.1V5.1H1.8zM3,4.8H3.3V5.1H3zM3.3,4.8H3.6V5.1H3.3zM3.6,4.8H3.9V5.1H3.6zM4.2,4.8H4.5V5.1H4.2zM5.1,4.8H5.4V5.1H5.1zM5.4,4.8H5.7V5.1H5.4zM5.7,4.8H6V5.1H5.7zM6.3,4.8H6.6V5.1H6.3zM6.6,4.8H6.9V5.1H6.6zM7.5,4.8H7.8V5.1H7.5zM8.4,4.8H8.7V5.1H8.4zM8.7,4.8H9V5.1H8.7zM0.3,5.1H0.6V5.4H0.3zM1.2,5.1H1.5V5.4H1.2zM1.8,5.1H2.1V5.4H1.8zM2.1,5.1H2.4V5.4H2.1zM2.7,5.1H3V5.4H2.7zM3,5.1H3.3V5.4H3zM3.3,5.1H3.6V5.4H3.3zM4.2,5.1H4.5V5.4H4.2zM5.1,5.1H5.4V5.4H5.1zM5.4,5.1H5.7V5.4H5.4zM6.3,5.1H6.6V5.4H6.3zM6.6,5.1H6.9V5.4H6.6zM8.4,5.1H8.7V5.4H8.4zM0.3,5.4H0.6V5.7H0.3zM1.5,5.4H1.8V5.7H1.5zM2.4,5.4H2.7V5.7H2.4zM2.7,5.4H3V5.7H2.7zM3,5.4H3.3V5.7H3zM3.9,5.4H4.2V5.7H3.9zM4.2,5.4H4.5V5.7H4.2zM4.5,5.4H4.8V5.7H4.5zM4.8,5.4H5.1V5.7H4.8zM5.1,5.4H5.4V5.7H5.1zM5.7,5.4H6V5.7H5.7zM6.9,5.4H7.2V5.7H6.9zM7.2,5.4H7.5V5.7H7.2zM7.5,5.4H7.8V5.7H7.5zM7.8,5.4H8.1V5.7H7.8zM8.4,5.4H8.7V5.7H8.4zM8.7,5.4H9V5.7H8.7zM1.2,5.7H1.5V6H1.2zM2.1,5.7H2.4V6H2.1zM2.4,5.7H2.7V6H2.4zM3,5.7H3.3V6H3zM3.3,5.7H3.6V6H3.3zM3.9,5.7H4.2V6H3.9zM4.8,5.7H5.1V6H4.8zM5.1,5.7H5.4V6H5.1zM6.3,5.7H6.6V6H6.3zM7.2,5.7H7.5V6H7.2zM8.1,5.7H8.4V6H8.1zM8.7,5.7H9V6H8.7zM0.9,6H1.2V6.3H0.9zM1.5,6H1.8V6.3H1.5zM1.8,6H2.1V6.3H1.8zM2.4,6H2.7V6.3H2.4zM2.7,6H3V6.3H2.7zM4.5,6H4.8V6.3H4.5zM4.8,6H5.1V6.3H4.8zM5.1,6H5.4V6.3H5.1zM5.4,6H5.7V6.3H5.4zM6.3,6H6.6V6.3H6.3zM8.4,6H8.7V6.3H8.4zM8.7,6H9V6.3H8.7zM0.3,6.3H0.6V6.6H0.3zM0.6,6.3H0.9V6.6H0.6zM1.2,6.3H1.5V6.6H1.2zM1.5,6.3H1.8V6.6H1.5zM2.1,6.3H2.4V6.6H2.1zM4.2,6.3H4.5V6.6H4.2zM4.5,6.3H4.8V6.6H4.5zM5.1,6.3H5.4V6.6H5.1zM5.4,6.3H5.7V6.6H5.4zM5.7,6.3H6V6.6H5.7zM6,6.3H6.3V6.6H6zM6.3,6.3H6.6V6.6H6.3zM6.6,6.3H6.9V6.6H6.6zM6.9,6.3H7.2V6.6H6.9zM7.2,6.3H7.5V6.6H7.2zM7.5,6.3H7.8V6.6H7.5zM7.8,6.3H8.1V6.6H7.8zM8.7,6.3H9V6.6H8.7zM2.7,6.6H3V6.9H2.7zM3,6.6H3.3V6.9H3zM3.3,6.6H3.6V6.9H3.3zM3.6,6.6H3.9V6.9H3.6zM3.9,6.6H4.2V6.9H3.9zM4.8,6.6H5.1V6.9H4.8zM5.1,6.6H5.4V6.9H5.1zM5.4,6.6H5.7V6.9H5.4zM5.7,6.6H6V6.9H5.7zM6.3,6.6H6.6V6.9H6.3zM7.5,6.6H7.8V6.9H7.5zM8.7,6.6H9V6.9H8.7zM0.3,6.9H0.6V7.2H0.3zM0.6,6.9H0.9V7.2H0.6zM0.9,6.9H1.2V7.2H0.9zM1.2,6.9H1.5V7.2H1.2zM1.5,6.9H1.8V7.2H1.5zM1.8,6.9H2.1V7.2H1.8zM2.1,6.9H2.4V7.2H2.1zM2.7,6.9H3V7.2H2.7zM3,6.9H3.3V7.2H3zM3.6,6.9H3.9V7.2H3.6zM3.9,6.9H4.2V7.2H3.9zM4.2,6.9H4.5V7.2H4.2zM4.5,6.9H4.8V7.2H4.5zM4.8,6.9H5.1V7.2H4.8zM5.7,6.9H6V7.2H5.7zM6,6.9H6.3V7.2H6zM6.3,6.9H6.6V7.2H6.3zM6.9,6.9H7.2V7.2H6.9zM7.5,6.9H7.8V7.2H7.5zM7.8,6.9H8.1V7.2H7.8zM8.1,6.9H8.4V7.2H8.1zM8.7,6.9H9V7.2H8.7zM0.3,7.2H0.6V7.5H0.3zM2.1,7.2H2.4V7.5H2.1zM3.3,7.2H3.6V7.5H3.3zM3.6,7.2H3.9V7.5H3.6zM3.9,7.2H4.2V7.5H3.9zM4.2,7.2H4.5V7.5H4.2zM5.1,7.2H5.4V7.5H5.1zM5.4,7.2H5.7V7.5H5.4zM6,7.2H6.3V7.5H6zM6.3,7.2H6.6V7.5H6.3zM7.5,7.2H7.8V7.5H7.5zM0.3,7.5H0.6V7.8H0.3zM0.9,7.5H1.2V7.8H0.9zM1.2,7.5H1.5V7.8H1.2zM1.5,7.5H1.8V7.8H1.5zM2.1,7.5H2.4V7.8H2.1zM2.7,7.5H3V7.8H2.7zM3,7.5H3.3V7.8H3zM3.3,7.5H3.6V7.8H3.3zM4.2,7.5H4.5V7.8H4.2zM5.4,7.5H5.7V7.8H5.4zM6,7.5H6.3V7.8H6zM6.3,7.5H6.6V7.8H6.3zM6.6,7.5H6.9V7.8H6.6zM6.9,7.5H7.2V7.8H6.9zM7.2,7.5H7.5V7.8H7.2zM7.5,7.5H7.8V7.8H7.5zM7.8,7.5H8.1V7.8H7.8zM8.4,7.5H8.7V7.8H8.4zM0.3,7.8H0.6V8.1H0.3zM0.9,7.8H1.2V8.1H0.9zM1.2,7.8H1.5V8.1H1.2zM1.5,7.8H1.8V8.1H1.5zM2.1,7.8H2.4V8.1H2.1zM3,7.8H3.3V8.1H3zM3.3,7.8H3.6V8.1H3.3zM3.6,7.8H3.9V8.1H3.6zM4.2,7.8H4.5V8.1H4.2zM4.5,7.8H4.8V8.1H4.5zM4.8,7.8H5.1V8.1H4.8zM5.4,7.8H5.7V8.1H5.4zM5.7,7.8H6V8.1H5.7zM6,7.8H6.3V8.1H6zM6.6,7.8H6.9V8.1H6.6zM7.2,7.8H7.5V8.1H7.2zM8.7,7.8H9V8.1H8.7zM0.3,8.1H0.6V8.4H0.3zM0.9,8.1H1.2V8.4H0.9zM1.2,8.1H1.5V8.4H1.2zM1.5,8.1H1.8V8.4H1.5zM2.1,8.1H2.4V8.4H2.1zM3,8.1H3.3V8.4H3zM3.3,8.1H3.6V8.4H3.3zM3.6,8.1H3.9V8.4H3.6zM4.2,8.1H4.5V8.4H4.2zM4.5,8.1H4.8V8.4H4.5zM4.8,8.1H5.1V8.4H4.8zM5.4,8.1H5.7V8.4H5.4zM6.3,8.1H6.6V8.4H6.3zM6.6,8.1H6.9V8.4H6.6zM7.8,8.1H8.1V8.4H7.8zM8.1,8.1H8.4V8.4H8.1zM8.4,8.1H8.7V8.4H8.4zM8.7,8.1H9V8.4H8.7zM0.3,8.4H0.6V8.7H0.3zM2.1,8.4H2.4V8.7H2.1zM3,8.4H3.3V8.7H3zM3.6,8.4H3.9V8.7H3.6zM3.9,8.4H4.2V8.7H3.9zM4.2,8.4H4.5V8.7H4.2zM5.4,8.4H5.7V8.7H5.4zM5.7,8.4H6V8.7H5.7zM6,8.4H6.3V8.7H6zM6.3,8.4H6.6V8.7H6.3zM6.6,8.4H6.9V8.7H6.6zM7.5,8.4H7.8V8.7H7.5zM7.8,8.4H8.1V8.7H7.8zM8.4,8.4H8.7V8.7H8.4zM8.7,8.4H9V8.7H8.7zM0.3,8.7H0.6V9H0.3zM0.6,8.7H0.9V9H0.6zM0.9,8.7H1.2V9H0.9zM1.2,8.7H1.5V9H1.2zM1.5,8.7H1.8V9H1.5zM1.8,8.7H2.1V9H1.8zM2.1,8.7H2.4V9H2.1zM2.7,8.7H3V9H2.7zM3,8.7H3.3V9H3zM3.3,8.7H3.6V9H3.3zM3.6,8.7H3.9V9H3.6zM4.8,8.7H5.1V9H4.8zM5.4,8.7H5.7V9H5.4zM6.3,8.7H6.6V9H6.3zM6.6,8.7H6.9V9H6.6zM7.2,8.7H7.5V9H7.2zM7.8,8.7H8.1V9H7.8zM8.4,8.7H8.7V9H8.4z"
            fill="#c92a2a"
            fill-opacity="1"
            fill-rule="nonzero"
            stroke="none"/>
    </g>

    <!-- 二维码说明文字 -->
    <text x="60" y="140" font-family="PingFang SC, sans-serif"
          font-size="16" fill="white" text-anchor="middle" font-weight="600">
      扫码了解更多
    </text>
  </g>

  <!-- 底部装饰线 -->
  <rect x="100" y="850" width="450" height="2" fill="rgba(255,255,255,0.6)"/>
  <circle cx="325" cy="851" r="4" fill="white"/>

  <text x="325" y="890" font-family="PingFang SC, sans-serif"
        font-size="28" font-weight="300" fill="rgba(255,255,255,0.9)" text-anchor="middle">
    还有1种解决方案
  </text>

  <text x="150" y="1120" font-family="PingFang SC, sans-serif"
        font-size="20" fill="rgba(255,255,255,0.7)">
    B站切片广告之友
  </text>
  <text x="650" y="1120" font-family="PingFang SC, sans-serif"
        font-size="20" fill="rgba(255,255,255,0.7)" text-anchor="end">
    不温不火发布中
  </text>
</svg>