<svg width="800" height="1200" viewBox="0 0 800 1200" xmlns="http://www.w3.org/2000/svg">
  <defs>
    <linearGradient id="blueBg1" x1="0%" y1="0%" x2="100%" y2="100%">
      <stop offset="0%" style="stop-color:#667eea;stop-opacity:1" />
      <stop offset="50%" style="stop-color:#764ba2;stop-opacity:1" />
      <stop offset="100%" style="stop-color:#5b73c4;stop-opacity:1" />
    </linearGradient>
    <filter id="glow">
      <feGaussianBlur stdDeviation="3" result="coloredBlur"/>
      <feMerge>
        <feMergeNode in="coloredBlur"/>
        <feMergeNode in="SourceGraphic"/>
      </feMerge>
    </filter>
  </defs>

  <!-- 背景 -->
  <rect width="800" height="1200" fill="url(#blueBg1)"/>

  <!-- 装饰：现代几何形状 -->
  <polygon points="100,120 220,80 280,180 160,220" fill="rgba(255,255,255,0.12)" transform="rotate(10 190 150)"/>
  <polygon points="580,180 720,140 780,240 640,280" fill="rgba(255,255,255,0.08)" transform="rotate(-15 685 210)"/>
  <polygon points="50,650 170,610 220,710 100,750" fill="rgba(255,255,255,0.15)" transform="rotate(20 135 680)"/>

  <!-- 科技感装饰线条 -->
  <line x1="0" y1="280" x2="180" y2="240" stroke="rgba(255,255,255,0.4)" stroke-width="2"/>
  <line x1="620" y1="380" x2="800" y2="340" stroke="rgba(255,255,255,0.4)" stroke-width="2"/>
  <line x1="0" y1="580" x2="120" y2="620" stroke="rgba(255,255,255,0.4)" stroke-width="2"/>

  <!-- 主标题 -->
  <text x="400" y="220" font-family="PingFang SC, Helvetica, sans-serif"
        font-size="52" font-weight="bold" fill="white" text-anchor="middle" filter="url(#glow)">
    AIGC办公应用
  </text>

  <text x="400" y="300" font-family="PingFang SC, Helvetica, sans-serif"
        font-size="64" font-weight="bold" fill="white" text-anchor="middle" filter="url(#glow)">
    实操训练营
  </text>

  <!-- 核心特色 -->
  <text x="400" y="480" font-family="PingFang SC, Helvetica, sans-serif"
        font-size="48" font-weight="200" fill="white" text-anchor="middle" filter="url(#glow)">
    课程六：AI创作新模式体验
  </text>

  <text x="400" y="540" font-family="PingFang SC, Helvetica, sans-serif"
        font-size="36" font-weight="300" fill="rgba(255,255,255,0.9)" text-anchor="middle">
    超越工作流
  </text>

  <!-- 真实二维码区域 -->
  <g id="qrcode-container" transform="translate(570, 790)">
    <!-- 二维码背景 -->
    <rect x="0" y="0" width="120" height="120" rx="15"
          fill="rgba(255,255,255,0.98)"
          stroke="rgba(255,255,255,0.5)"
          stroke-width="2"
          filter="url(#glow)"/>

    <!-- 真实二维码 - 调整尺寸和颜色 -->
    <g transform="translate(4.5, 4.5) scale(10.75)">
      <path d="M0.3,0.3H0.6V0.6H0.3zM0.6,0.3H0.9V0.6H0.6zM0.9,0.3H1.2V0.6H0.9zM1.2,0.3H1.5V0.6H1.2zM1.5,0.3H1.8V0.6H1.5zM1.8,0.3H2.1V0.6H1.8zM2.1,0.3H2.4V0.6H2.1zM2.7,0.3H3V0.6H2.7zM3.6,0.3H3.9V0.6H3.6zM3.9,0.3H4.2V0.6H3.9zM5.1,0.3H5.4V0.6H5.1zM5.7,0.3H6V0.6H5.7zM6,0.3H6.3V0.6H6zM6.3,0.3H6.6V0.6H6.3zM6.6,0.3H6.9V0.6H6.6zM7.2,0.3H7.5V0.6H7.2zM8.1,0.3H8.4V0.6H8.1zM8.4,0.3H8.7V0.6H8.4zM8.7,0.3H9V0.6H8.7zM9,0.3H9.3V0.6H9zM9.3,0.3H9.6V0.6H9.3zM9.6,0.3H9.9V0.6H9.6zM9.9,0.3H10.2V0.6H9.9zM0.3,0.6H0.6V0.9H0.3zM2.1,0.6H2.4V0.9H2.1zM2.7,0.6H3V0.9H2.7zM3,0.6H3.3V0.9H3zM3.3,0.6H3.6V0.9H3.3zM3.6,0.6H3.9V0.9H3.6zM3.9,0.6H4.2V0.9H3.9zM4.5,0.6H4.8V0.9H4.5zM5.1,0.6H5.4V0.9H5.1zM5.4,0.6H5.7V0.9H5.4zM6.3,0.6H6.6V0.9H6.3zM7.2,0.6H7.5V0.9H7.2zM7.5,0.6H7.8V0.9H7.5zM8.1,0.6H8.4V0.9H8.1zM9.9,0.6H10.2V0.9H9.9zM0.3,0.9H0.6V1.2H0.3zM0.9,0.9H1.2V1.2H0.9zM1.2,0.9H1.5V1.2H1.2zM1.5,0.9H1.8V1.2H1.5zM2.1,0.9H2.4V1.2H2.1zM3,0.9H3.3V1.2H3zM3.3,0.9H3.6V1.2H3.3zM4.2,0.9H4.5V1.2H4.2zM4.5,0.9H4.8V1.2H4.5zM5.1,0.9H5.4V1.2H5.1zM5.7,0.9H6V1.2H5.7zM6.3,0.9H6.6V1.2H6.3zM7.2,0.9H7.5V1.2H7.2zM7.5,0.9H7.8V1.2H7.5zM8.1,0.9H8.4V1.2H8.1zM8.7,0.9H9V1.2H8.7zM9,0.9H9.3V1.2H9zM9.3,0.9H9.6V1.2H9.3zM9.9,0.9H10.2V1.2H9.9zM0.3,1.2H0.6V1.5H0.3zM0.9,1.2H1.2V1.5H0.9zM1.2,1.2H1.5V1.5H1.2zM1.5,1.2H1.8V1.5H1.5zM2.1,1.2H2.4V1.5H2.1zM2.7,1.2H3V1.5H2.7zM3,1.2H3.3V1.5H3zM3.3,1.2H3.6V1.5H3.3zM3.6,1.2H3.9V1.5H3.6zM3.9,1.2H4.2V1.5H3.9zM5.7,1.2H6V1.5H5.7zM6,1.2H6.3V1.5H6zM6.6,1.2H6.9V1.5H6.6zM7.2,1.2H7.5V1.5H7.2zM7.5,1.2H7.8V1.5H7.5zM8.1,1.2H8.4V1.5H8.1zM8.7,1.2H9V1.5H8.7zM9,1.2H9.3V1.5H9zM9.3,1.2H9.6V1.5H9.3zM9.9,1.2H10.2V1.5H9.9zM0.3,1.5H0.6V1.8H0.3zM0.9,1.5H1.2V1.8H0.9zM1.2,1.5H1.5V1.8H1.2zM1.5,1.5H1.8V1.8H1.5zM2.1,1.5H2.4V1.8H2.1zM3,1.5H3.3V1.8H3zM3.9,1.5H4.2V1.8H3.9zM4.2,1.5H4.5V1.8H4.2zM5.1,1.5H5.4V1.8H5.1zM5.4,1.5H5.7V1.8H5.4zM5.7,1.5H6V1.8H5.7zM6.6,1.5H6.9V1.8H6.6zM6.9,1.5H7.2V1.8H6.9zM7.2,1.5H7.5V1.8H7.2zM7.5,1.5H7.8V1.8H7.5zM8.1,1.5H8.4V1.8H8.1zM8.7,1.5H9V1.8H8.7zM9,1.5H9.3V1.8H9zM9.3,1.5H9.6V1.8H9.3zM9.9,1.5H10.2V1.8H9.9zM0.3,1.8H0.6V2.1H0.3zM2.1,1.8H2.4V2.1H2.1zM3,1.8H3.3V2.1H3zM3.3,1.8H3.6V2.1H3.3zM3.9,1.8H4.2V2.1H3.9zM4.5,1.8H4.8V2.1H4.5zM4.8,1.8H5.1V2.1H4.8zM5.1,1.8H5.4V2.1H5.1zM5.4,1.8H5.7V2.1H5.4zM5.7,1.8H6V2.1H5.7zM6.6,1.8H6.9V2.1H6.6zM7.2,1.8H7.5V2.1H7.2zM8.1,1.8H8.4V2.1H8.1zM9.9,1.8H10.2V2.1H9.9zM0.3,2.1H0.6V2.4H0.3zM0.6,2.1H0.9V2.4H0.6zM0.9,2.1H1.2V2.4H0.9zM1.2,2.1H1.5V2.4H1.2zM1.5,2.1H1.8V2.4H1.5zM1.8,2.1H2.1V2.4H1.8zM2.1,2.1H2.4V2.4H2.1zM2.7,2.1H3V2.4H2.7zM3.3,2.1H3.6V2.4H3.3zM3.9,2.1H4.2V2.4H3.9zM4.5,2.1H4.8V2.4H4.5zM5.1,2.1H5.4V2.4H5.1zM5.7,2.1H6V2.4H5.7zM6.3,2.1H6.6V2.4H6.3zM6.9,2.1H7.2V2.4H6.9zM7.5,2.1H7.8V2.4H7.5zM8.1,2.1H8.4V2.4H8.1zM8.4,2.1H8.7V2.4H8.4zM8.7,2.1H9V2.4H8.7zM9,2.1H9.3V2.4H9zM9.3,2.1H9.6V2.4H9.3zM9.6,2.1H9.9V2.4H9.6zM9.9,2.1H10.2V2.4H9.9zM2.7,2.4H3V2.7H2.7zM3,2.4H3.3V2.7H3zM3.3,2.4H3.6V2.7H3.3zM3.9,2.4H4.2V2.7H3.9zM4.8,2.4H5.1V2.7H4.8zM5.1,2.4H5.4V2.7H5.1zM5.4,2.4H5.7V2.7H5.4zM5.7,2.4H6V2.7H5.7zM6,2.4H6.3V2.7H6zM7.5,2.4H7.8V2.7H7.5zM0.3,2.7H0.6V3H0.3zM0.9,2.7H1.2V3H0.9zM1.2,2.7H1.5V3H1.2zM1.8,2.7H2.1V3H1.8zM2.1,2.7H2.4V3H2.1zM2.4,2.7H2.7V3H2.4zM4.8,2.7H5.1V3H4.8zM5.1,2.7H5.4V3H5.1zM5.4,2.7H5.7V3H5.4zM5.7,2.7H6V3H5.7zM6.6,2.7H6.9V3H6.6zM7.2,2.7H7.5V3H7.2zM8.1,2.7H8.4V3H8.1zM9,2.7H9.3V3H9zM9.6,2.7H9.9V3H9.6zM9.9,2.7H10.2V3H9.9zM0.3,3H0.6V3.3H0.3zM0.9,3H1.2V3.3H0.9zM1.2,3H1.5V3.3H1.2zM2.4,3H2.7V3.3H2.4zM2.7,3H3V3.3H2.7zM3.3,3H3.6V3.3H3.3zM3.6,3H3.9V3.3H3.6zM3.9,3H4.2V3.3H3.9zM4.2,3H4.5V3.3H4.2zM5.1,3H5.4V3.3H5.1zM5.4,3H5.7V3.3H5.4zM5.7,3H6V3.3H5.7zM6,3H6.3V3.3H6zM7.2,3H7.5V3.3H7.2zM8.1,3H8.4V3.3H8.1zM8.4,3H8.7V3.3H8.4zM9,3H9.3V3.3H9zM9.3,3H9.6V3.3H9.3zM9.6,3H9.9V3.3H9.6zM0.6,3.3H0.9V3.6H0.6zM1.2,3.3H1.5V3.6H1.2zM2.1,3.3H2.4V3.6H2.1zM2.4,3.3H2.7V3.6H2.4zM2.7,3.3H3V3.6H2.7zM3.3,3.3H3.6V3.6H3.3zM3.6,3.3H3.9V3.6H3.6zM4.2,3.3H4.5V3.6H4.2zM5.7,3.3H6V3.6H5.7zM6.6,3.3H6.9V3.6H6.6zM6.9,3.3H7.2V3.6H6.9zM7.2,3.3H7.5V3.6H7.2zM7.5,3.3H7.8V3.6H7.5zM7.8,3.3H8.1V3.6H7.8zM8.4,3.3H8.7V3.6H8.4zM8.7,3.3H9V3.6H8.7zM9,3.3H9.3V3.6H9zM9.6,3.3H9.9V3.6H9.6zM9.9,3.3H10.2V3.6H9.9zM0.6,3.6H0.9V3.9H0.6zM1.5,3.6H1.8V3.9H1.5zM3,3.6H3.3V3.9H3zM4.8,3.6H5.1V3.9H4.8zM5.4,3.6H5.7V3.9H5.4zM6,3.6H6.3V3.9H6zM6.6,3.6H6.9V3.9H6.6zM6.9,3.6H7.2V3.9H6.9zM7.2,3.6H7.5V3.9H7.2zM7.8,3.6H8.1V3.9H7.8zM8.1,3.6H8.4V3.9H8.1zM8.4,3.6H8.7V3.9H8.4zM9,3.6H9.3V3.9H9zM0.3,3.9H0.6V4.2H0.3zM0.6,3.9H0.9V4.2H0.6zM1.2,3.9H1.5V4.2H1.2zM1.5,3.9H1.8V4.2H1.5zM1.8,3.9H2.1V4.2H1.8zM2.1,3.9H2.4V4.2H2.1zM2.7,3.9H3V4.2H2.7zM3.3,3.9H3.6V4.2H3.3zM3.6,3.9H3.9V4.2H3.6zM3.9,3.9H4.2V4.2H3.9zM4.5,3.9H4.8V4.2H4.5zM5.1,3.9H5.4V4.2H5.1zM6,3.9H6.3V4.2H6zM6.3,3.9H6.6V4.2H6.3zM6.6,3.9H6.9V4.2H6.6zM6.9,3.9H7.2V4.2H6.9zM7.2,3.9H7.5V4.2H7.2zM7.5,3.9H7.8V4.2H7.5zM7.8,3.9H8.1V4.2H7.8zM8.4,3.9H8.7V4.2H8.4zM8.7,3.9H9V4.2H8.7zM9,3.9H9.3V4.2H9zM9.9,3.9H10.2V4.2H9.9zM1.5,4.2H1.8V4.5H1.5zM2.7,4.2H3V4.5H2.7zM3.3,4.2H3.6V4.5H3.3zM3.6,4.2H3.9V4.5H3.6zM3.9,4.2H4.2V4.5H3.9zM4.2,4.2H4.5V4.5H4.2zM4.5,4.2H4.8V4.5H4.5zM6.3,4.2H6.6V4.5H6.3zM6.6,4.2H6.9V4.5H6.6zM7.2,4.2H7.5V4.5H7.2zM8.4,4.2H8.7V4.5H8.4zM9.3,4.2H9.6V4.5H9.3zM9.6,4.2H9.9V4.5H9.6zM0.9,4.5H1.2V4.8H0.9zM1.2,4.5H1.5V4.8H1.2zM1.5,4.5H1.8V4.8H1.5zM1.8,4.5H2.1V4.8H1.8zM2.1,4.5H2.4V4.8H2.1zM2.4,4.5H2.7V4.8H2.4zM3,4.5H3.3V4.8H3zM3.9,4.5H4.2V4.8H3.9zM6,4.5H6.3V4.8H6zM6.3,4.5H6.6V4.8H6.3zM6.6,4.5H6.9V4.8H6.6zM7.5,4.5H7.8V4.8H7.5zM8.1,4.5H8.4V4.8H8.1zM9,4.5H9.3V4.8H9zM9.3,4.5H9.6V4.8H9.3zM0.6,4.8H0.9V5.1H0.6zM1.2,4.8H1.5V5.1H1.2zM1.8,4.8H2.1V5.1H1.8zM2.4,4.8H2.7V5.1H2.4zM2.7,4.8H3V5.1H2.7zM3,4.8H3.3V5.1H3zM3.3,4.8H3.6V5.1H3.3zM4.2,4.8H4.5V5.1H4.2zM4.8,4.8H5.1V5.1H4.8zM6.6,4.8H6.9V5.1H6.6zM6.9,4.8H7.2V5.1H6.9zM7.2,4.8H7.5V5.1H7.2zM7.8,4.8H8.1V5.1H7.8zM8.1,4.8H8.4V5.1H8.1zM8.4,4.8H8.7V5.1H8.4zM9,4.8H9.3V5.1H9zM9.3,4.8H9.6V5.1H9.3zM0.6,5.1H0.9V5.4H0.6zM1.5,5.1H1.8V5.4H1.5zM2.1,5.1H2.4V5.4H2.1zM2.4,5.1H2.7V5.4H2.4zM3,5.1H3.3V5.4H3zM3.3,5.1H3.6V5.4H3.3zM3.6,5.1H3.9V5.4H3.6zM3.9,5.1H4.2V5.4H3.9zM5.7,5.1H6V5.4H5.7zM6.3,5.1H6.6V5.4H6.3zM6.6,5.1H6.9V5.4H6.6zM6.9,5.1H7.2V5.4H6.9zM7.8,5.1H8.1V5.4H7.8zM8.1,5.1H8.4V5.4H8.1zM8.7,5.1H9V5.4H8.7zM9,5.1H9.3V5.4H9zM9.3,5.1H9.6V5.4H9.3zM0.6,5.4H0.9V5.7H0.6zM1.5,5.4H1.8V5.7H1.5zM1.8,5.4H2.1V5.7H1.8zM2.4,5.4H2.7V5.7H2.4zM3,5.4H3.3V5.7H3zM3.9,5.4H4.2V5.7H3.9zM4.2,5.4H4.5V5.7H4.2zM4.5,5.4H4.8V5.7H4.5zM4.8,5.4H5.1V5.7H4.8zM5.1,5.4H5.4V5.7H5.1zM5.7,5.4H6V5.7H5.7zM6.3,5.4H6.6V5.7H6.3zM6.9,5.4H7.2V5.7H6.9zM7.2,5.4H7.5V5.7H7.2zM7.5,5.4H7.8V5.7H7.5zM7.8,5.4H8.1V5.7H7.8zM8.1,5.4H8.4V5.7H8.1zM8.7,5.4H9V5.7H8.7zM9,5.4H9.3V5.7H9zM9.6,5.4H9.9V5.7H9.6zM9.9,5.4H10.2V5.7H9.9zM1.2,5.7H1.5V6H1.2zM1.5,5.7H1.8V6H1.5zM1.8,5.7H2.1V6H1.8zM2.1,5.7H2.4V6H2.1zM2.4,5.7H2.7V6H2.4zM3,5.7H3.3V6H3zM3.3,5.7H3.6V6H3.3zM3.9,5.7H4.2V6H3.9zM4.2,5.7H4.5V6H4.2zM4.5,5.7H4.8V6H4.5zM4.8,5.7H5.1V6H4.8zM5.7,5.7H6V6H5.7zM6.3,5.7H6.6V6H6.3zM6.6,5.7H6.9V6H6.6zM8.1,5.7H8.4V6H8.1zM8.4,5.7H8.7V6H8.4zM8.7,5.7H9V6H8.7zM9.3,5.7H9.6V6H9.3zM9.6,5.7H9.9V6H9.6zM0.3,6H0.6V6.3H0.3zM0.6,6H0.9V6.3H0.6zM0.9,6H1.2V6.3H0.9zM2.4,6H2.7V6.3H2.4zM2.7,6H3V6.3H2.7zM3,6H3.3V6.3H3zM3.6,6H3.9V6.3H3.6zM4.5,6H4.8V6.3H4.5zM4.8,6H5.1V6.3H4.8zM5.4,6H5.7V6.3H5.4zM5.7,6H6V6.3H5.7zM6.9,6H7.2V6.3H6.9zM7.5,6H7.8V6.3H7.5zM7.8,6H8.1V6.3H7.8zM8.1,6H8.4V6.3H8.1zM8.7,6H9V6.3H8.7zM9.6,6H9.9V6.3H9.6zM9.9,6H10.2V6.3H9.9zM0.6,6.3H0.9V6.6H0.6zM1.2,6.3H1.5V6.6H1.2zM1.5,6.3H1.8V6.6H1.5zM1.8,6.3H2.1V6.6H1.8zM2.1,6.3H2.4V6.6H2.1zM2.4,6.3H2.7V6.6H2.4zM2.7,6.3H3V6.6H2.7zM3,6.3H3.3V6.6H3zM3.3,6.3H3.6V6.6H3.3zM3.6,6.3H3.9V6.6H3.6zM4.5,6.3H4.8V6.6H4.5zM5.1,6.3H5.4V6.6H5.1zM6.9,6.3H7.2V6.6H6.9zM7.2,6.3H7.5V6.6H7.2zM8.4,6.3H8.7V6.6H8.4zM9,6.3H9.3V6.6H9zM9.3,6.3H9.6V6.6H9.3zM9.6,6.3H9.9V6.6H9.6zM0.3,6.6H0.6V6.9H0.3zM1.5,6.6H1.8V6.9H1.5zM1.8,6.6H2.1V6.9H1.8zM2.4,6.6H2.7V6.9H2.4zM2.7,6.6H3V6.9H2.7zM3.3,6.6H3.6V6.9H3.3zM4.2,6.6H4.5V6.9H4.2zM4.5,6.6H4.8V6.9H4.5zM4.8,6.6H5.1V6.9H4.8zM5.1,6.6H5.4V6.9H5.1zM6.3,6.6H6.6V6.9H6.3zM6.9,6.6H7.2V6.9H6.9zM7.2,6.6H7.5V6.9H7.2zM7.5,6.6H7.8V6.9H7.5zM8.1,6.6H8.4V6.9H8.1zM9,6.6H9.3V6.9H9zM9.9,6.6H10.2V6.9H9.9zM0.9,6.9H1.2V7.2H0.9zM1.2,6.9H1.5V7.2H1.2zM1.5,6.9H1.8V7.2H1.5zM2.1,6.9H2.4V7.2H2.1zM2.7,6.9H3V7.2H2.7zM3,6.9H3.3V7.2H3zM3.3,6.9H3.6V7.2H3.3zM4.2,6.9H4.5V7.2H4.2zM4.8,6.9H5.1V7.2H4.8zM5.4,6.9H5.7V7.2H5.4zM5.7,6.9H6V7.2H5.7zM6,6.9H6.3V7.2H6zM6.3,6.9H6.6V7.2H6.3zM7.2,6.9H7.5V7.2H7.2zM7.5,6.9H7.8V7.2H7.5zM7.8,6.9H8.1V7.2H7.8zM8.4,6.9H8.7V7.2H8.4zM9,6.9H9.3V7.2H9zM9.6,6.9H9.9V7.2H9.6zM9.9,6.9H10.2V7.2H9.9zM0.6,7.2H0.9V7.5H0.6zM1.5,7.2H1.8V7.5H1.5zM2.4,7.2H2.7V7.5H2.4zM3,7.2H3.3V7.5H3zM3.6,7.2H3.9V7.5H3.6zM4.2,7.2H4.5V7.5H4.2zM4.5,7.2H4.8V7.5H4.5zM4.8,7.2H5.1V7.5H4.8zM6.3,7.2H6.6V7.5H6.3zM7.2,7.2H7.5V7.5H7.2zM7.5,7.2H7.8V7.5H7.5zM8.1,7.2H8.4V7.5H8.1zM8.7,7.2H9V7.5H8.7zM9,7.2H9.3V7.5H9zM9.9,7.2H10.2V7.5H9.9zM0.3,7.5H0.6V7.8H0.3zM0.9,7.5H1.2V7.8H0.9zM1.5,7.5H1.8V7.8H1.5zM1.8,7.5H2.1V7.8H1.8zM2.1,7.5H2.4V7.8H2.1zM2.4,7.5H2.7V7.8H2.4zM3.3,7.5H3.6V7.8H3.3zM4.2,7.5H4.5V7.8H4.2zM4.5,7.5H4.8V7.8H4.5zM5.4,7.5H5.7V7.8H5.4zM6,7.5H6.3V7.8H6zM6.9,7.5H7.2V7.8H6.9zM7.5,7.5H7.8V7.8H7.5zM7.8,7.5H8.1V7.8H7.8zM8.1,7.5H8.4V7.8H8.1zM8.4,7.5H8.7V7.8H8.4zM8.7,7.5H9V7.8H8.7zM9.9,7.5H10.2V7.8H9.9zM2.7,7.8H3V8.1H2.7zM3,7.8H3.3V8.1H3zM3.9,7.8H4.2V8.1H3.9zM4.8,7.8H5.1V8.1H4.8zM5.1,7.8H5.4V8.1H5.1zM6,7.8H6.3V8.1H6zM6.6,7.8H6.9V8.1H6.6zM6.9,7.8H7.2V8.1H6.9zM7.2,7.8H7.5V8.1H7.2zM7.5,7.8H7.8V8.1H7.5zM8.7,7.8H9V8.1H8.7zM9,7.8H9.3V8.1H9zM0.3,8.1H0.6V8.4H0.3zM0.6,8.1H0.9V8.4H0.6zM0.9,8.1H1.2V8.4H0.9zM1.2,8.1H1.5V8.4H1.2zM1.5,8.1H1.8V8.4H1.5zM1.8,8.1H2.1V8.4H1.8zM2.1,8.1H2.4V8.4H2.1zM2.7,8.1H3V8.4H2.7zM3.6,8.1H3.9V8.4H3.6zM3.9,8.1H4.2V8.4H3.9zM4.2,8.1H4.5V8.4H4.2zM4.5,8.1H4.8V8.4H4.5zM5.4,8.1H5.7V8.4H5.4zM5.7,8.1H6V8.4H5.7zM6,8.1H6.3V8.4H6zM6.3,8.1H6.6V8.4H6.3zM6.6,8.1H6.9V8.4H6.6zM7.2,8.1H7.5V8.4H7.2zM7.5,8.1H7.8V8.4H7.5zM8.1,8.1H8.4V8.4H8.1zM8.7,8.1H9V8.4H8.7zM0.3,8.4H0.6V8.7H0.3zM2.1,8.4H2.4V8.7H2.1zM2.7,8.4H3V8.7H2.7zM3.9,8.4H4.2V8.7H3.9zM4.5,8.4H4.8V8.7H4.5zM4.8,8.4H5.1V8.7H4.8zM5.1,8.4H5.4V8.7H5.1zM5.4,8.4H5.7V8.7H5.4zM5.7,8.4H6V8.7H5.7zM6.3,8.4H6.6V8.7H6.3zM7.2,8.4H7.5V8.7H7.2zM7.5,8.4H7.8V8.7H7.5zM8.7,8.4H9V8.7H8.7zM9,8.4H9.3V8.7H9zM9.3,8.4H9.6V8.7H9.3zM9.6,8.4H9.9V8.7H9.6zM9.9,8.4H10.2V8.7H9.9zM0.3,8.7H0.6V9H0.3zM0.9,8.7H1.2V9H0.9zM1.2,8.7H1.5V9H1.2zM1.5,8.7H1.8V9H1.5zM2.1,8.7H2.4V9H2.1zM3.3,8.7H3.6V9H3.3zM3.9,8.7H4.2V9H3.9zM4.5,8.7H4.8V9H4.5zM5.1,8.7H5.4V9H5.1zM5.4,8.7H5.7V9H5.4zM5.7,8.7H6V9H5.7zM6.9,8.7H7.2V9H6.9zM7.2,8.7H7.5V9H7.2zM7.5,8.7H7.8V9H7.5zM7.8,8.7H8.1V9H7.8zM8.1,8.7H8.4V9H8.1zM8.4,8.7H8.7V9H8.4zM8.7,8.7H9V9H8.7zM9.3,8.7H9.6V9H9.3zM9.6,8.7H9.9V9H9.6zM0.3,9H0.6V9.3H0.3zM0.9,9H1.2V9.3H0.9zM1.2,9H1.5V9.3H1.2zM1.5,9H1.8V9.3H1.5zM2.1,9H2.4V9.3H2.1zM2.7,9H3V9.3H2.7zM3,9H3.3V9.3H3zM3.3,9H3.6V9.3H3.3zM3.9,9H4.2V9.3H3.9zM4.2,9H4.5V9.3H4.2zM5.1,9H5.4V9.3H5.1zM5.4,9H5.7V9.3H5.4zM6,9H6.3V9.3H6zM6.6,9H6.9V9.3H6.6zM6.9,9H7.2V9.3H6.9zM8.4,9H8.7V9.3H8.4zM9,9H9.3V9.3H9zM9.6,9H9.9V9.3H9.6zM9.9,9H10.2V9.3H9.9zM0.3,9.3H0.6V9.6H0.3zM0.9,9.3H1.2V9.6H0.9zM1.2,9.3H1.5V9.6H1.2zM1.5,9.3H1.8V9.6H1.5zM2.1,9.3H2.4V9.6H2.1zM2.7,9.3H3V9.6H2.7zM3,9.3H3.3V9.6H3zM3.3,9.3H3.6V9.6H3.3zM3.6,9.3H3.9V9.6H3.6zM3.9,9.3H4.2V9.6H3.9zM4.2,9.3H4.5V9.6H4.2zM4.8,9.3H5.1V9.6H4.8zM5.1,9.3H5.4V9.6H5.1zM5.7,9.3H6V9.6H5.7zM6.3,9.3H6.6V9.6H6.3zM7.2,9.3H7.5V9.6H7.2zM7.5,9.3H7.8V9.6H7.5zM7.8,9.3H8.1V9.6H7.8zM8.1,9.3H8.4V9.6H8.1zM8.4,9.3H8.7V9.6H8.4zM9,9.3H9.3V9.6H9zM9.3,9.3H9.6V9.6H9.3zM0.3,9.6H0.6V9.9H0.3zM2.1,9.6H2.4V9.9H2.1zM3.6,9.6H3.9V9.9H3.6zM5.4,9.6H5.7V9.9H5.4zM6.3,9.6H6.6V9.9H6.3zM7.2,9.6H7.5V9.9H7.2zM7.5,9.6H7.8V9.9H7.5zM7.8,9.6H8.1V9.9H7.8zM8.4,9.6H8.7V9.9H8.4zM8.7,9.6H9V9.9H8.7zM9.9,9.6H10.2V9.9H9.9zM0.3,9.9H0.6V10.2H0.3zM0.6,9.9H0.9V10.2H0.6zM0.9,9.9H1.2V10.2H0.9zM1.2,9.9H1.5V10.2H1.2zM1.5,9.9H1.8V10.2H1.5zM1.8,9.9H2.1V10.2H1.8zM2.1,9.9H2.4V10.2H2.1zM2.7,9.9H3V10.2H2.7zM3,9.9H3.3V10.2H3zM3.3,9.9H3.6V10.2H3.3zM3.9,9.9H4.2V10.2H3.9zM5.4,9.9H5.7V10.2H5.4zM5.7,9.9H6V10.2H5.7zM6,9.9H6.3V10.2H6zM6.3,9.9H6.6V10.2H6.3zM6.6,9.9H6.9V10.2H6.6zM7.2,9.9H7.5V10.2H7.2zM7.8,9.9H8.1V10.2H7.8zM8.1,9.9H8.4V10.2H8.1zM8.7,9.9H9V10.2H8.7zM9.3,9.9H9.6V10.2H9.3z"
            fill="#5b73c4"
            fill-opacity="1"
            fill-rule="nonzero"
            stroke="none"/>
    </g>

    <!-- 二维码说明文字 -->
    <text x="60" y="140" font-family="PingFang SC, sans-serif"
          font-size="16" fill="white" text-anchor="middle" font-weight="600">
      扫码查看课件
    </text>
  </g>

  <!-- 课程特色要点 -->
  <text x="200" y="820" font-family="PingFang SC, Helvetica, sans-serif"
        font-size="24" font-weight="400" fill="rgba(255,255,255,0.9)" text-anchor="middle">
      实操Cursor和Github
  </text>

  <text x="200" y="860" font-family="PingFang SC, Helvetica, sans-serif"
        font-size="24" font-weight="400" fill="rgba(255,255,255,0.9)" text-anchor="middle">
      体验高带宽的AI协同
  </text>

  <text x="200" y="900" font-family="PingFang SC, Helvetica, sans-serif"
        font-size="24" font-weight="400" fill="rgba(255,255,255,0.9)" text-anchor="middle">
      探索工作模式的变化
  </text>

  <!-- 底部装饰线 -->
  <rect x="100" y="950" width="600" height="2" fill="rgba(255,255,255,0.6)"/>
  <circle cx="400" cy="951" r="4" fill="white"/>

  <text x="400" y="990" font-family="PingFang SC, sans-serif"
        font-size="32" font-weight="300" fill="rgba(255,255,255,0.9)" text-anchor="middle">
    用AI重新定义工作方式
  </text>

  <text x="150" y="1120" font-family="PingFang SC, sans-serif"
        font-size="20" fill="rgba(255,255,255,0.7)">
    分享人：Izumi.屈源
  </text>
  <text x="650" y="1120" font-family="PingFang SC, sans-serif"
        font-size="20" fill="rgba(255,255,255,0.7)" text-anchor="end">
    专业 · 实用 · 高效
  </text>
</svg>